HIERARCHY
ROOT Hips
{
	OFFSET 0.00000 0.00000 0.00000
	CHANNELS 6 Xposition Yposition Zposition Yrotation Zrotation Xrotation 
	JOINT Lumbar
	{
		OFFSET 0 0 0
		CHANNELS 3 Zrotation Xrotation Yrotation
		JOINT Neck
		{
			OFFSET 0.00 0.2701 0.00
			CHANNELS 3 Zrotation Xrotation Yrotation
			End Site
			{
				OFFSET 0.00 0.1379 0.00
			}
		}
		JOINT RightShoulder
		{
			OFFSET 0.0119 0.2289 0.1181
			CHANNELS 3 Zrotation Xrotation Yrotation
			JOINT RightElbow
			{
				OFFSET 0.00 -0.1475 0.00
				CHANNELS 2 Zrotation Yrotation
				JOINT RightWrist
				{
					OFFSET 0.00 -0.1605 0.00
					CHANNELS 2 Zrotation Xrotation
					End Site
					{
						OFFSET 0.0040 -0.1068 0.0006
					}
				}
			}
		}
		JOINT LeftShoulder
		{
			OFFSET 0.0119 0.2289 -0.1181
			CHANNELS 3 Zrotation Xrotation Yrotation
			JOINT LeftElbow
			{
				OFFSET 0.00 -0.1475 0.00
				CHANNELS 2 Zrotation Yrotation
				JOINT LeftWrist
				{
					OFFSET 0.00 -0.1605 0.00
					CHANNELS 2 Zrotation Xrotation
					End Site
					{
						OFFSET 0.0040 -0.1068 -0.0006
					}
				}
			}
		}
	}
	JOINT RightHip
	{
		OFFSET 0.0316 -0.0424 0.0458
		CHANNELS 3 Zrotation Xrotation Yrotation
		JOINT RightKnee
		{
			OFFSET 0.00 -0.2438 0.00
			CHANNELS 1 Zrotation
			JOINT RightAnkle
			{
				OFFSET 0.00 -0.2449 0.00
				CHANNELS 3 Zrotation Xrotation Yrotation
				End Site
				{
					OFFSET 0.1237 -0.0542 0.0051
				}
			}
		}
	}
	JOINT LeftHip
	{
		OFFSET 0.0316 -0.0424 -0.0458
		CHANNELS 3 Zrotation Xrotation Yrotation
		JOINT LeftKnee
		{
			OFFSET 0.00 -0.2438 0.00
			CHANNELS 1 Zrotation
			JOINT LeftAnkle
			{
				OFFSET 0.00 -0.2449 0.00
				CHANNELS 3 Zrotation Xrotation Yrotation
				End Site
				{
					OFFSET 0.1237 -0.0542 -0.0051
				}
			}
		}
	}
}
MOTION
Frames: 19
Frame Time: 0.02
0.00122 8e-05 0.00062 117.5173 -33.93008 -13.49969 42.25195 -1.53793 -10.49101 -16.34787 5.6304 -1.23622 -24.77814 -7.18182 -17.01899 30.41689 96.05044 8.61994 1.85442 -24.22067 11.4874 10.46086 40.3026 -105.41198 14.4036 -2.33189 30.94665 -4.23611 -1.8593 -20.72457 -6.84707 -3.85326 -4.13923 33.94947 4.5869 -1.86249 -25.67761 -6.9929 3.39447 3.90334
0.00133 9e-05 -0.00026 117.3138 -33.8828 -13.55 42.33808 -1.49843 -10.43698 -16.34705 5.67728 -1.23688 -24.69545 -7.22241 -16.86015 30.53183 96.12257 8.64851 1.84879 -24.39899 11.38646 10.44771 40.28467 -105.43161 14.4479 -2.3437 30.83775 -4.33 -2.76966 -20.69298 -6.78656 -3.76142 -4.08805 33.80205 4.80263 -1.10921 -25.63049 -6.9666 3.34793 3.87776
0.00143 0.0001 -0.00114 117.11072 -33.83566 -13.60023 42.42402 -1.45904 -10.38313 -16.34622 5.72409 -1.23753 -24.61288 -7.26282 -16.70178 30.64645 96.19465 8.67701 1.84324 -24.57714 11.28574 10.43455 40.2667 -105.45132 14.49212 -2.35546 30.72916 -4.42348 -3.67708 -20.66147 -6.72623 -3.66985 -4.03702 33.65502 5.01776 -0.3583 -25.58349 -6.94038 3.30156 3.85227
0.00154 0.00011 -0.00202 116.90782 -33.78852 -13.6504 42.5099 -1.41966 -10.32927 -16.3454 5.77084 -1.23819 -24.53043 -7.3033 -16.54333 30.76103 96.26623 8.7054 1.83758 -24.75496 11.1851 10.42143 40.24881 -105.47092 14.53629 -2.36722 30.62058 -4.51706 -4.58461 -20.62997 -6.6659 -3.57829 -3.986 33.50804 5.23284 0.39265 -25.53651 -6.91416 3.25517 3.82677
0.00165 0.00012 -0.0029 116.70456 -33.74125 -13.70063 42.59595 -1.38017 -10.2752 -16.34461 5.81764 -1.23885 -24.4479 -7.3439 -16.38468 30.87593 96.33877 8.73413 1.83199 -24.93281 11.08425 10.40835 40.23097 -105.4904 14.5805 -2.37904 30.51171 -4.61111 -5.49515 -20.59841 -6.6054 -3.48646 -3.93482 33.3607 5.44847 1.14599 -25.4894 -6.88785 3.20861 3.80117
0.00175 0.00013 -0.00377 116.50188 -33.69439 -13.75084 42.68163 -1.34098 -10.22182 -16.34369 5.86446 -1.23951 -24.36524 -7.38388 -16.22704 30.98997 96.41043 8.76228 1.82661 -25.11161 10.98381 10.39502 40.21271 -105.51057 14.62477 -2.39068 30.40371 -4.70338 -6.39595 -20.567 -6.54542 -3.39546 -3.88413 33.21431 5.66255 1.89173 -25.44264 -6.86184 3.16262 3.77591
0.00186 0.00014 -0.00465 116.29828 -33.64674 -13.80104 42.76797 -1.30123 -10.16714 -16.34303 5.91121 -1.24017 -24.28296 -7.42524 -16.06689 31.10559 96.4812 8.79084 1.82038 -25.28825 10.88268 10.38218 40.19538 -105.52934 14.66887 -2.40267 30.29408 -4.7991 -7.31527 -20.53532 -6.48447 -3.30289 -3.83251 33.06619 5.87953 2.65193 -25.39524 -6.83525 3.11555 3.75001
0.00196 0.00015 -0.00553 116.09549 -33.59982 -13.85123 42.85371 -1.26199 -10.11363 -16.34214 5.95797 -1.24083 -24.20029 -7.46502 -15.91021 31.21979 96.5575 8.82036 1.81571 -25.46693 10.78214 10.36895 40.1771 -105.54939 14.71312 -2.41433 30.18595 -4.8917 -8.21769 -20.5039 -6.4244 -3.21175 -3.78174 32.91964 6.09381 3.39882 -25.34841 -6.8092 3.06947 3.72469
0.00207 0.00016 -0.00641 115.89373 -33.55379 -13.90152 42.9387 -1.22339 -10.06162 -16.34091 6.00498 -1.24148 -24.11723 -7.5041 -15.75315 31.33214 96.62192 8.84576 1.80989 -25.64808 10.68246 10.355 40.15797 -105.57106 14.75759 -2.42558 30.07959 -4.98027 -9.0991 -20.47274 -6.36541 -3.12238 -3.73202 32.77504 6.305 4.12963 -25.30234 -6.78379 3.02461 3.70009
0.00217 0.00017 -0.00729 115.68612 -33.50264 -13.9516 43.02795 -1.18117 -10.00119 -16.34146 6.05126 -1.24214 -24.03667 -7.55092 -15.58438 31.45478 96.6987 8.87896 1.80149 -25.81498 10.57826 10.34446 40.14467 -105.5836 14.80092 -2.43919 29.96287 -5.09135 -10.10035 -20.43991 -6.30023 -3.0229 -3.67627 32.61929 6.5346 4.95356 -25.25208 -6.75461 2.97274 3.67138
0.00229 0.00018 -0.00816 115.49088 -33.4623 -14.00187 43.10823 -1.14656 -9.95839 -16.33835 6.09863 -1.2428 -23.95071 -7.579 -15.44921 31.55594 96.78514 8.90587 1.80439 -26.01192 10.48335 10.32718 40.11851 -105.61526 14.84659 -2.44785 29.86811 -5.15541 -10.84938 -20.4107 -6.2481 -2.94472 -3.63323 32.48703 6.72493 5.58057 -25.21056 -6.73343 2.93566 3.65135
0.00246 0.00019 -0.009 115.32979 -33.45167 -14.05468 43.1636 -1.13305 -9.96557 -16.32442 6.15252 -1.24346 -23.85136 -7.5759 -15.33019 31.59676 96.5905 8.828 1.78809 -26.29207 10.41601 10.28768 40.06106 -105.70133 14.89923 -2.44248 29.83348 -5.08513 -10.89446 -20.39075 -6.23213 -2.92577 -3.6257 32.4202 6.81006 5.66646 -25.19393 -6.73416 2.9394 3.65514
0.00264 0.0002 -0.00982 115.18128 -33.45193 -14.10723 43.20999 -1.12715 -9.99021 -16.30694 6.20666 -1.24411 -23.74677 -7.55092 -15.25639 31.61687 96.4524 8.75737 1.79065 -26.60197 10.35763 10.24215 39.98995 -105.80636 14.95414 -2.43226 29.82091 -4.96866 -10.68834 -20.37453 -6.22921 -2.9281 -3.63083 32.37682 6.85531 5.55522 -25.1859 -6.74291 2.9579 3.66761
0.00282 0.00021 -0.01064 115.02657 -33.44711 -14.1587 43.26071 -1.11761 -10.00568 -16.29161 6.2586 -1.24475 -23.6431 -7.52182 -15.21487 31.64663 96.50231 8.74394 1.81965 -26.89808 10.29376 10.20178 39.92247 -105.90127 15.00763 -2.4245 29.79837 -4.87672 -10.60508 -20.35709 -6.22006 -2.92015 -3.62972 32.32201 6.91709 5.53406 -25.1734 -6.74805 2.96957 3.67615
0.003 0.00023 -0.01148 114.87303 -33.44267 -14.21555 43.31048 -1.10881 -10.02608 -16.27403 6.32011 -1.24542 -23.54375 -7.54917 -14.96113 31.67292 95.6921 8.4861 1.70825 -27.1965 10.23581 10.151 39.86582 -106.00207 15.06268 -2.4155 29.77572 -4.76954 -10.48514 -20.33778 -6.21212 -2.91468 -3.63059 32.27034 6.9854 5.50847 -25.16338 -6.75313 2.98199 3.68482
0.00317 0.00024 -0.01228 114.72115 -33.44027 -14.26072 43.35997 -1.10033 -10.04076 -16.26026 6.36083 -1.24605 -23.43645 -7.45738 -15.14668 31.70458 96.63416 8.72534 1.88454 -27.4958 10.16775 10.12068 39.78339 -106.09572 15.11513 -2.40811 29.75841 -4.68339 -10.38138 -20.32308 -6.20485 -2.90924 -3.63044 32.2179 7.0308 5.44783 -25.15011 -6.76012 2.9961 3.69508
0.00329 0.00024 -0.01301 114.56155 -33.43865 -14.27734 43.41211 -1.09042 -10.03196 -16.25836 6.35179 -1.2465 -23.28887 -7.01085 -16.64907 31.73232 102.85182 10.45243 2.92972 -27.8017 10.0683 10.14797 39.63366 -106.16563 15.16069 -2.40587 29.75128 -4.66487 -10.39074 -20.32162 -6.19541 -2.89732 -3.62356 32.15574 7.0214 5.31757 -25.1268 -6.77159 3.01331 3.70929
0.00338 0.00024 -0.0137 114.40522 -33.43919 -14.2815 43.46412 -1.08069 -10.01756 -16.26037 6.32036 -1.24693 -23.13714 -6.45103 -18.57023 31.77222 110.746 12.65719 4.249 -28.10526 9.95836 10.19697 39.45885 -106.2317 15.20463 -2.40618 29.74856 -4.66944 -10.42405 -20.32442 -6.18634 -2.88495 -3.61537 32.09244 6.99055 5.16232 -25.09978 -6.78449 3.03133 3.72451
0.00348 0.00024 -0.01439 114.25303 -33.44004 -14.28898 43.51532 -1.07116 -10.0078 -16.26021 6.29417 -1.24739 -23.00013 -5.96342 -20.22468 31.82012 117.57799 14.56715 5.39095 -28.40249 9.85433 10.23526 39.29452 -106.29391 15.2472 -2.40476 29.74328 -4.66463 -10.44161 -20.32434 -6.17761 -2.87367 -3.60832 32.03069 6.97043 5.03301 -25.07374 -6.79596 3.04766 3.73818
